<svg xmlns="http://www.w3.org/2000/svg" viewBox="0 0 48 48" width="48" height="48">
  <circle cx="24" cy="24" r="22" fill="rgba(0, 255, 0, 0.1)" stroke="#00ff00" stroke-width="2"/>
  <path d="M34.5 13.5c-.3-.1-.7 0-1 .2l-18 9c-.5.3-.8.8-.8 1.3 0 .5.3 1 .8 1.3l4.5 2.2 1.7 5.7c.1.4.4.7.8.8h.2c.3 0 .6-.1.8-.4l2.5-2.7 4.8 3.7c.3.2.6.3.9.3.2 0 .4-.1.6-.2.4-.3.6-.7.7-1.2l3-16.5c.1-.6-.1-1.2-.6-1.5-.2-.1-.5-.2-.9-.2-.4 0-.7.1-1 .2zm-11.7 11.8l-3.5-1.7 13.5-6.7-10 8.4zm1.7 1.5l1.5 4.9 1-1.1-2.5-3.8zm8.5 4.7l-6-4.5 12-10.2-6 14.7z" fill="#00ff00" stroke="#00ff00" stroke-width="0.5"/>
</svg>
