<svg xmlns="http://www.w3.org/2000/svg" viewBox="0 0 48 48" width="48" height="48">
  <circle cx="24" cy="24" r="22" fill="rgba(0, 255, 0, 0.1)" stroke="#00ff00" stroke-width="2"/>
  <path d="M36 16.5c-1 .5-2.1.8-3.2.9 1.2-.7 2-1.8 2.4-3.1-1.1.7-2.3 1.1-3.6 1.4-1-1.1-2.5-1.8-4.1-1.8-3.1 0-5.6 2.5-5.6 5.6 0 .4 0 .9.1 1.3-4.7-.2-8.8-2.5-11.6-5.9-.5.8-.8 1.8-.8 2.8 0 1.9 1 3.6 2.5 4.6-.9 0-1.8-.3-2.5-.7v.1c0 2.7 1.9 5 4.5 5.5-.5.1-1 .2-1.5.2-.4 0-.7 0-1.1-.1.7 2.3 2.9 4 5.4 4-2 1.6-4.5 2.5-7.2 2.5-.5 0-.9 0-1.4-.1 2.5 1.6 5.6 2.6 8.8 2.6 10.6 0 16.4-8.8 16.4-16.4v-.7c1.1-.8 2.1-1.8 2.9-3z" fill="#00ff00" stroke="#00ff00" stroke-width="0.5"/>
</svg>
